<svg width="56" height="58" viewBox="0 0 56 58" fill="none" xmlns="http://www.w3.org/2000/svg">
<rect width="56" height="58" rx="4" fill="#121212"/>
<path d="M23 32.375C24.0355 32.375 24.875 31.5355 24.875 30.5C24.875 29.4645 24.0355 28.625 23 28.625C21.9645 28.625 21.125 29.4645 21.125 30.5C21.125 31.5355 21.9645 32.375 23 32.375Z" fill="url(#paint0_linear_260111_962)"/>
<path d="M33 32.375C34.0355 32.375 34.875 31.5355 34.875 30.5C34.875 29.4645 34.0355 28.625 33 28.625C31.9645 28.625 31.125 29.4645 31.125 30.5C31.125 31.5355 31.9645 32.375 33 32.375Z" fill="url(#paint1_linear_260111_962)"/>
<path d="M19.6248 20.5002C22.3345 19.651 25.1601 19.2293 27.9998 19.2503C30.8394 19.2293 33.665 19.651 36.3748 20.5002" stroke="url(#paint2_linear_260111_962)" stroke-width="1.875" stroke-linecap="round" stroke-linejoin="round"/>
<path d="M36.3748 35.5C33.665 36.3493 30.8394 36.771 27.9998 36.75C25.1601 36.771 22.3345 36.3493 19.6248 35.5" stroke="url(#paint3_linear_260111_962)" stroke-width="1.875" stroke-linecap="round" stroke-linejoin="round"/>
<path d="M32.219 36.4531L34.1096 40.2031C34.2312 40.4589 34.4381 40.6643 34.6947 40.784C34.9514 40.9038 35.2417 40.9304 35.5159 40.8594C39.344 39.9219 42.6565 38.2969 45.0627 36.2031C45.2441 36.0431 45.3759 35.8344 45.4424 35.6018C45.5089 35.3691 45.5072 35.1224 45.4377 34.8906L40.1409 17.2031C40.0894 17.0221 39.996 16.8557 39.8685 16.7173C39.7409 16.5789 39.5827 16.4724 39.4065 16.4063C37.91 15.7923 36.3624 15.3113 34.7815 14.9688C34.4777 14.9022 34.16 14.9499 33.8891 15.1026C33.6182 15.2554 33.413 15.5025 33.3127 15.7969L32.0784 19.5313" stroke="url(#paint4_linear_260111_962)" stroke-width="1.875" stroke-linecap="round" stroke-linejoin="round"/>
<path d="M23.7819 36.4531L21.8912 40.2031C21.7695 40.4589 21.5626 40.6643 21.306 40.784C21.0494 40.9038 20.7591 40.9304 20.4849 40.8594C16.6568 39.9219 13.3443 38.2969 10.9381 36.2031C10.7567 36.0431 10.6249 35.8344 10.5585 35.6018C10.492 35.3691 10.4936 35.1224 10.5631 34.8906L15.86 17.2031C15.9115 17.0221 16.0048 16.8557 16.1323 16.7173C16.2599 16.5789 16.4181 16.4724 16.5943 16.4063C18.0908 15.7923 19.6385 15.3113 21.2194 14.9688C21.5231 14.9022 21.8407 14.9499 22.1116 15.1026C22.3826 15.2554 22.5877 15.5025 22.6881 15.7969L23.9225 19.5313" stroke="url(#paint5_linear_260111_962)" stroke-width="1.875" stroke-linecap="round" stroke-linejoin="round"/>
<path d="M23 32.375C24.0355 32.375 24.875 31.5355 24.875 30.5C24.875 29.4645 24.0355 28.625 23 28.625C21.9645 28.625 21.125 29.4645 21.125 30.5C21.125 31.5355 21.9645 32.375 23 32.375Z" fill="url(#paint6_linear_260111_962)"/>
<path d="M33 32.375C34.0355 32.375 34.875 31.5355 34.875 30.5C34.875 29.4645 34.0355 28.625 33 28.625C31.9645 28.625 31.125 29.4645 31.125 30.5C31.125 31.5355 31.9645 32.375 33 32.375Z" fill="url(#paint7_linear_260111_962)"/>
<path d="M19.6248 20.5002C22.3345 19.651 25.1601 19.2293 27.9998 19.2503C30.8394 19.2293 33.665 19.651 36.3748 20.5002" stroke="url(#paint8_linear_260111_962)" stroke-width="1.875" stroke-linecap="round" stroke-linejoin="round"/>
<path d="M36.3748 35.5C33.665 36.3493 30.8394 36.771 27.9998 36.75C25.1601 36.771 22.3345 36.3493 19.6248 35.5" stroke="url(#paint9_linear_260111_962)" stroke-width="1.875" stroke-linecap="round" stroke-linejoin="round"/>
<path d="M32.219 36.4531L34.1096 40.2031C34.2312 40.4589 34.4381 40.6643 34.6947 40.784C34.9514 40.9038 35.2417 40.9304 35.5159 40.8594C39.344 39.9219 42.6565 38.2969 45.0627 36.2031C45.2441 36.0431 45.3759 35.8344 45.4424 35.6018C45.5089 35.3691 45.5072 35.1224 45.4377 34.8906L40.1409 17.2031C40.0894 17.0221 39.996 16.8557 39.8685 16.7173C39.7409 16.5789 39.5827 16.4724 39.4065 16.4063C37.91 15.7923 36.3624 15.3113 34.7815 14.9688C34.4777 14.9022 34.16 14.9499 33.8891 15.1026C33.6182 15.2554 33.413 15.5025 33.3127 15.7969L32.0784 19.5313" stroke="url(#paint10_linear_260111_962)" stroke-width="1.875" stroke-linecap="round" stroke-linejoin="round"/>
<path d="M23.7819 36.4531L21.8912 40.2031C21.7695 40.4589 21.5626 40.6643 21.306 40.784C21.0494 40.9038 20.7591 40.9304 20.4849 40.8594C16.6568 39.9219 13.3443 38.2969 10.9381 36.2031C10.7567 36.0431 10.6249 35.8344 10.5585 35.6018C10.492 35.3691 10.4936 35.1224 10.5631 34.8906L15.86 17.2031C15.9115 17.0221 16.0048 16.8557 16.1323 16.7173C16.2599 16.5789 16.4181 16.4724 16.5943 16.4063C18.0908 15.7923 19.6385 15.3113 21.2194 14.9688C21.5231 14.9022 21.8407 14.9499 22.1116 15.1026C22.3826 15.2554 22.5877 15.5025 22.6881 15.7969L23.9225 19.5313" stroke="url(#paint11_linear_260111_962)" stroke-width="1.875" stroke-linecap="round" stroke-linejoin="round"/>
<defs>
<linearGradient id="paint0_linear_260111_962" x1="24.1494" y1="28.4375" x2="21.8089" y2="30.6029" gradientUnits="userSpaceOnUse">
<stop stop-color="white"/>
<stop offset="1" stop-color="white"/>
</linearGradient>
<linearGradient id="paint1_linear_260111_962" x1="34.1494" y1="28.4375" x2="31.8089" y2="30.6029" gradientUnits="userSpaceOnUse">
<stop stop-color="white"/>
<stop offset="1" stop-color="white"/>
</linearGradient>
<linearGradient id="paint2_linear_260111_962" x1="33.1338" y1="19.187" x2="33.0083" y2="20.7429" gradientUnits="userSpaceOnUse">
<stop stop-color="white"/>
<stop offset="1" stop-color="white"/>
</linearGradient>
<linearGradient id="paint3_linear_260111_962" x1="33.1338" y1="35.4375" x2="33.0083" y2="36.9934" gradientUnits="userSpaceOnUse">
<stop stop-color="white"/>
<stop offset="1" stop-color="white"/>
</linearGradient>
<linearGradient id="paint4_linear_260111_962" x1="42.8959" y1="13.6415" x2="30.2487" y2="19.6871" gradientUnits="userSpaceOnUse">
<stop stop-color="white"/>
<stop offset="1" stop-color="white"/>
</linearGradient>
<linearGradient id="paint5_linear_260111_962" x1="21.3273" y1="13.6415" x2="8.6802" y2="19.6871" gradientUnits="userSpaceOnUse">
<stop stop-color="white"/>
<stop offset="1" stop-color="white"/>
</linearGradient>
<linearGradient id="paint6_linear_260111_962" x1="24.1494" y1="28.4375" x2="21.8089" y2="30.6029" gradientUnits="userSpaceOnUse">
<stop stop-color="white"/>
<stop offset="1" stop-color="white"/>
</linearGradient>
<linearGradient id="paint7_linear_260111_962" x1="34.1494" y1="28.4375" x2="31.8089" y2="30.6029" gradientUnits="userSpaceOnUse">
<stop stop-color="white"/>
<stop offset="1" stop-color="white"/>
</linearGradient>
<linearGradient id="paint8_linear_260111_962" x1="33.1338" y1="19.187" x2="33.0083" y2="20.7429" gradientUnits="userSpaceOnUse">
<stop stop-color="white"/>
<stop offset="1" stop-color="white"/>
</linearGradient>
<linearGradient id="paint9_linear_260111_962" x1="33.1338" y1="35.4375" x2="33.0083" y2="36.9934" gradientUnits="userSpaceOnUse">
<stop stop-color="white"/>
<stop offset="1" stop-color="white"/>
</linearGradient>
<linearGradient id="paint10_linear_260111_962" x1="42.8959" y1="13.6415" x2="30.2487" y2="19.6871" gradientUnits="userSpaceOnUse">
<stop stop-color="white"/>
<stop offset="1" stop-color="white"/>
</linearGradient>
<linearGradient id="paint11_linear_260111_962" x1="21.3273" y1="13.6415" x2="8.6802" y2="19.6871" gradientUnits="userSpaceOnUse">
<stop stop-color="white"/>
<stop offset="1" stop-color="white"/>
</linearGradient>
</defs>
</svg>
